<svg id="Layer_1" data-name="Layer 1" xmlns="http://www.w3.org/2000/svg" viewBox="0 0 171.2 166.91"><defs><style>.cls-1,.cls-2{fill:none;stroke:#fff;stroke-miterlimit:10;}.cls-1{stroke-width:4px;}.cls-2{stroke-width:3px;}</style></defs><polygon class="cls-1" points="85.6 2.22 18.69 34.44 2.16 106.84 48.47 164.91 122.73 164.91 169.03 106.84 152.51 34.44 85.6 2.22"/><path class="cls-2" d="M69.3,79.65S65.85,66,51.59,68.63C38.82,71,40.24,81.18,40.91,84.62h0c.22,1.61,2.21,7,14,9.34,12.24,2.41,13.61,7.26,14.35,11s0,12.15-10.07,14.38c-7,1.54-19.3-1.94-19.85-12.9" transform="translate(-1.33 -3.12)"/><path class="cls-2" d="M76.78,68.29l13.36,50.89a.13.13,0,0,0,.26,0l15.72-50.45a.15.15,0,0,1,.28,0l15.43,50.15a.13.13,0,0,0,.25,0l13.66-50.59" transform="translate(-1.33 -3.12)"/></svg>